<?xml version="1.0" standalone="no"?>
<!DOCTYPE svg PUBLIC "-//W3C//DTD SVG 20010904//EN"
 "http://www.w3.org/TR/2001/REC-SVG-20010904/DTD/svg10.dtd">
<svg version="1.0" xmlns="http://www.w3.org/2000/svg"
 width="700.000000pt" height="700.000000pt" viewBox="0 0 700.000000 700.000000"
 preserveAspectRatio="xMidYMid meet">
<metadata>
Created by potrace 1.11, written by Peter Selinger 2001-2013
</metadata>
<g transform="translate(0.000000,700.000000) scale(0.100000,-0.100000)"
fill="#000000" stroke="none">
<path d="M1897 6614 c-1 -1 -38 -5 -82 -8 -381 -32 -751 -180 -1060 -423 -62
-50 -256 -238 -295 -289 -157 -200 -239 -340 -325 -554 -40 -101 -97 -307
-109 -400 -4 -25 -10 -70 -14 -100 -9 -70 -8 -377 2 -455 17 -144 65 -334 119
-477 31 -80 133 -287 153 -309 8 -8 14 -19 14 -23 0 -19 123 -184 221 -295 56
-65 2052 -2054 2664 -2657 216 -212 250 -236 339 -236 73 -1 122 25 194 101
266 276 930 950 1722 1745 514 516 956 960 981 985 243 245 429 570 514 897
13 50 26 110 30 134 4 25 8 47 10 50 17 28 27 448 12 550 -4 25 -9 65 -13 90
-3 25 -15 81 -26 125 -10 44 -23 96 -27 115 -12 49 -64 187 -106 276 -153 333
-412 632 -715 829 -139 91 -205 125 -385 200 -73 30 -260 83 -355 99 -19 3
-44 8 -55 10 -123 24 -436 24 -580 1 -78 -12 -92 -14 -115 -19 -402 -84 -722
-257 -1008 -543 l-103 -103 -67 71 c-175 188 -455 380 -677 464 -38 15 -79 31
-90 35 -25 11 -182 58 -215 64 -165 32 -187 35 -263 42 -63 6 -285 12 -290 8z
m318 -467 c17 -3 46 -8 65 -12 129 -23 297 -82 429 -151 88 -47 181 -104 201
-124 3 -3 23 -18 45 -35 74 -55 219 -210 285 -305 117 -167 148 -192 250 -196
95 -3 155 30 216 121 61 91 68 99 118 160 198 238 444 401 741 491 44 14 93
27 109 30 16 3 32 6 35 8 20 12 160 21 316 20 260 -2 419 -38 650 -149 172
-82 284 -163 430 -310 247 -249 399 -576 432 -925 26 -280 -20 -549 -136 -796
-41 -86 -115 -213 -151 -257 -5 -7 -32 -39 -59 -73 -27 -34 -315 -328 -640
-654 -800 -803 -1463 -1472 -1774 -1790 l-258 -263 -51 49 c-388 374 -2597
2580 -2658 2654 -171 208 -303 496 -336 738 -40 294 -16 527 83 791 160 428
524 774 962 916 44 14 92 28 108 31 15 3 36 7 45 10 28 8 61 14 118 20 30 4
57 8 59 10 5 5 332 -3 366 -9z"/>
<path d="M1906 5755 c-112 -39 -168 -123 -161 -240 7 -113 101 -195 233 -202
114 -6 212 -31 312 -79 79 -39 108 -60 180 -133 52 -52 97 -109 115 -144 64
-124 127 -171 230 -171 178 0 277 177 192 344 -177 345 -526 586 -907 625
-112 12 -158 12 -194 0z"/>
<path d="M4930 5752 c-25 -9 -61 -33 -85 -57 -106 -110 -78 -287 57 -356 39
-20 59 -24 178 -33 334 -28 613 -315 636 -654 8 -121 22 -161 74 -212 53 -54
116 -76 185 -67 125 18 198 111 196 251 -2 111 -14 189 -47 304 -84 290 -301
555 -573 700 -78 42 -258 107 -321 116 -168 23 -246 26 -300 8z"/>
</g>
</svg>
